<?xml version="1.0" standalone="no"?>
<!DOCTYPE svg PUBLIC "-//W3C//DTD SVG 20010904//EN"
 "http://www.w3.org/TR/2001/REC-SVG-20010904/DTD/svg10.dtd">
<svg version="1.0" xmlns="http://www.w3.org/2000/svg"
 width="300.000000pt" height="300.000000pt" viewBox="0 0 300.000000 300.000000"
 preserveAspectRatio="xMidYMid meet">
<metadata>
Created by potrace 1.11, written by Peter Selinger 2001-2013
</metadata>
<g transform="translate(0.000000,300.000000) scale(0.100000,-0.100000)"
fill="#000000" stroke="none">
<path d="M1140 2798 c-233 -43 -385 -101 -557 -214 -107 -71 -288 -249 -356
-352 -150 -225 -222 -462 -221 -722 0 -122 3 -157 25 -270 6 -30 12 -66 15
-80 18 -98 100 -272 189 -405 177 -263 461 -459 769 -530 112 -26 140 -29 291
-29 231 -1 313 15 554 109 144 56 286 101 351 111 19 3 54 9 77 14 23 4 88 6
145 5 127 -2 224 -28 350 -91 117 -59 149 -61 194 -11 42 46 44 83 7 128 -86
102 -287 170 -548 186 -55 3 -101 7 -103 8 -5 5 51 89 65 98 7 4 13 12 13 17
0 5 17 35 38 67 82 125 150 326 177 531 6 39 6 222 1 252 -3 14 -7 43 -10 65
-45 355 -278 709 -604 920 -74 47 -229 124 -287 141 -65 20 -143 38 -205 49
-82 14 -300 16 -370 3z m284 -416 c50 -22 98 -70 129 -127 30 -58 30 -173 -2
-234 -82 -158 -281 -197 -413 -81 -82 72 -111 174 -79 278 47 154 216 229 365
164z m-660 -482 c95 -45 156 -146 152 -250 -8 -182 -190 -304 -358 -241 -108
41 -172 135 -171 251 1 196 200 323 377 240z m1320 2 c87 -39 145 -126 154
-229 4 -56 1 -70 -27 -127 -36 -74 -82 -116 -154 -140 -91 -30 -186 -11 -258
53 -61 53 -90 115 -91 194 -3 199 194 329 376 249z m-1057 -785 c244 -124 152
-498 -123 -500 -193 -2 -321 193 -244 371 60 140 228 199 367 129z m808 5 c99
-51 150 -134 149 -242 -1 -36 -8 -81 -16 -101 -38 -89 -137 -158 -231 -163
-244 -12 -377 279 -206 452 33 34 73 58 119 73 41 14 142 3 185 -19z"/>
</g>
</svg>
