<?xml version="1.0" encoding="UTF-8"?>
<!DOCTYPE svg PUBLIC "-//W3C//DTD SVG 1.1//EN" "http://www.w3.org/Graphics/SVG/1.1/DTD/svg11.dtd">
<!-- Creator: CorelDRAW 2017 -->
<svg xmlns="http://www.w3.org/2000/svg" xml:space="preserve" width="0.999992in" height="0.876661in" version="1.1" style="shape-rendering:geometricPrecision; text-rendering:geometricPrecision; image-rendering:optimizeQuality; fill-rule:evenodd; clip-rule:evenodd"
viewBox="0 0 999.99 876.66"
 xmlns:xlink="http://www.w3.org/1999/xlink">
 <defs>
  <style type="text/css">
   <![CDATA[
    .str0 {stroke:black;stroke-width:3;stroke-miterlimit:2.61313}
    .fil0 {fill:black}
    .fil1 {fill:#595954}
   ]]>
  </style>
 </defs>
 <g id="Layer_x0020_1">
  <metadata id="CorelCorpID_0Corel-Layer"/>
  <path class="fil0 str0" d="M13.65 345.59c61.15,-272.33 360.76,-412.77 596.6,-303.25 196.54,91.28 302.03,304.48 244.64,509.06 -9.83,35.04 -21.71,67.13 -37.72,94.88 -18.5,32.04 -36.14,51.19 -52.72,79.06 66.02,-1.76 191.68,9.44 231.68,70.93l0 16.45c-20.37,30.91 -32.64,29.03 -64.46,10.67 -150.1,-86.58 -305.13,13.74 -383.87,34.21 -55.34,14.39 -115.67,18.03 -176.21,9.56 -78.95,-11.04 -145.03,-43.41 -202.94,-87.73 -54.34,-41.58 -93.7,-95.8 -125.87,-160.8 -33.55,-67.79 -30.83,-128.17 -38.91,-149.64l0 -68.26c5.78,-14.47 5.84,-37.55 9.79,-55.13z"/>
  <g id="_2280008885472">
   <path class="fil1 str0" d="M437.2 131.98c51.54,0 93.33,41.79 93.33,93.33 0,51.54 -41.79,93.33 -93.33,93.33 -51.54,0 -93.33,-41.79 -93.33,-93.33 0,-51.54 41.79,-93.33 93.33,-93.33z"/>
   <path class="fil1 str0" d="M657.52 292.06c51.54,0 93.33,41.79 93.33,93.33 0,51.54 -41.79,93.33 -93.33,93.33 -51.54,0 -93.33,-41.79 -93.33,-93.33 0,-51.54 41.79,-93.33 93.33,-93.33z"/>
   <path class="fil1 str0" d="M573.37 551.07c51.54,0 93.33,41.79 93.33,93.33 0,51.54 -41.79,93.33 -93.33,93.33 -51.54,0 -93.33,-41.79 -93.33,-93.33 0,-51.54 41.79,-93.33 93.33,-93.33z"/>
   <path class="fil1 str0" d="M301.03 551.07c51.54,0 93.33,41.79 93.33,93.33 0,51.54 -41.79,93.33 -93.33,93.33 -51.54,0 -93.33,-41.79 -93.33,-93.33 0,-51.54 41.79,-93.33 93.33,-93.33z"/>
   <path class="fil1 str0" d="M216.87 292.06c51.54,0 93.33,41.79 93.33,93.33 0,51.54 -41.79,93.33 -93.33,93.33 -51.54,0 -93.33,-41.79 -93.33,-93.33 0,-51.54 41.79,-93.33 93.33,-93.33z"/>
      <animateTransform attributeName="transform"
            attributeType="XML"
            type="rotate"
            from="0 446 446"
            to="360 446 446"
            dur="5s"
            repeatCount="indefinite"/>
  </g>
 </g>
</svg>
